<?xml version="1.0" standalone="no"?>
<!DOCTYPE svg PUBLIC "-//W3C//DTD SVG 20010904//EN"
 "http://www.w3.org/TR/2001/REC-SVG-20010904/DTD/svg10.dtd">
<svg version="1.0" xmlns="http://www.w3.org/2000/svg"
 width="512.000000pt" height="512.000000pt" viewBox="0 0 512.000000 512.000000"
 preserveAspectRatio="xMidYMid meet">

<g transform="translate(0.000000,512.000000) scale(0.100000,-0.100000)"
fill="#000000" stroke="none">
<path d="M3731 3176 c-756 -645 -1374 -1176 -1375 -1179 -1 -10 1799 -1229
1801 -1220 2 5 217 804 478 1778 262 974 477 1776 480 1783 2 6 1 12 -3 11 -4
0 -625 -528 -1381 -1173z"/>
<path d="M2375 3790 c-1127 -302 -2121 -568 -2208 -591 -87 -23 -154 -45 -150
-49 15 -13 1383 -581 1391 -577 74 41 3030 1753 3037 1759 5 5 3 8 -5 7 -8 0
-937 -248 -2065 -549z"/>
<path d="M2886 3145 c-726 -421 -1324 -769 -1330 -775 -6 -6 27 -235 95 -654
57 -355 107 -642 110 -638 3 4 65 221 138 482 73 261 140 485 149 497 10 12
494 427 1077 923 1085 924 1093 930 1085 930 -3 -1 -599 -345 -1324 -765z"/>
<path d="M2093 1343 c-68 -240 -122 -438 -120 -439 4 -4 628 610 627 617 0 7
-350 246 -372 254 -10 4 -45 -110 -135 -432z"/>
</g>
</svg>
