<?xml version="1.0" standalone="no"?>
<!DOCTYPE svg PUBLIC "-//W3C//DTD SVG 20010904//EN"
 "http://www.w3.org/TR/2001/REC-SVG-20010904/DTD/svg10.dtd">
<svg version="1.0" xmlns="http://www.w3.org/2000/svg"
 width="512.000000pt" height="512.000000pt" viewBox="0 0 512.000000 512.000000"
 preserveAspectRatio="xMidYMid meet">

<g transform="translate(0.000000,512.000000) scale(0.100000,-0.100000)"
fill="#000000" stroke="none">
<path d="M336 4964 c-35 -11 -65 -32 -107 -73 -97 -97 -90 18 -87 -1417 l3
-1249 30 -54 c33 -59 77 -100 145 -134 l45 -22 1255 0 1255 0 52 24 c65 29
134 101 159 166 18 48 19 92 19 1295 0 1011 -2 1252 -13 1283 -21 58 -83 129
-143 162 l-54 30 -1255 2 c-1096 2 -1261 0 -1304 -13z m768 -473 c122 -60 187
-161 194 -301 6 -118 -19 -183 -102 -266 -83 -83 -148 -108 -266 -102 -141 7
-241 72 -302 196 -30 61 -33 75 -33 157 1 77 5 98 29 147 46 96 139 173 240
199 17 5 63 7 103 5 57 -2 86 -10 137 -35z m668 -670 c75 -36 134 -94 170
-169 30 -61 33 -75 33 -157 -1 -77 -5 -98 -29 -147 -35 -73 -100 -139 -174
-175 -50 -24 -69 -28 -147 -28 -82 0 -97 3 -157 33 -124 61 -190 162 -196 302
-5 118 19 183 102 266 84 83 140 105 261 101 68 -3 102 -9 137 -26z m684 -681
c150 -73 230 -243 190 -401 -42 -165 -179 -272 -346 -272 -144 0 -259 72 -322
201 -30 60 -33 75 -33 152 0 72 5 94 28 145 87 187 301 265 483 175z"/>
<path d="M3250 2718 c0 -216 -5 -424 -10 -463 -29 -197 -178 -346 -375 -375
-38 -5 -247 -10 -463 -10 l-393 0 3 -752 c3 -696 4 -756 21 -792 28 -62 80
-119 138 -151 l54 -30 1249 -3 c1435 -3 1320 -10 1417 87 97 97 90 -18 87
1417 l-3 1249 -23 42 c-35 66 -79 110 -140 140 l-57 28 -752 3 -753 3 0 -393z
m1122 -45 c68 -30 148 -111 180 -180 18 -39 22 -66 22 -143 0 -115 -19 -165
-94 -244 -122 -129 -312 -149 -458 -49 -105 71 -156 177 -150 308 7 166 113
294 275 335 58 14 161 2 225 -27z m-1471 -1446 c112 -46 186 -131 215 -247 41
-162 -47 -341 -203 -412 -69 -32 -217 -32 -286 0 -72 33 -150 111 -183 185
-37 83 -40 197 -6 272 68 150 178 225 332 225 55 0 90 -6 131 -23z m1471 -6
c75 -36 134 -94 170 -169 30 -60 33 -75 33 -157 0 -77 -4 -98 -27 -147 -34
-73 -103 -142 -176 -176 -49 -23 -70 -27 -147 -27 -82 0 -97 3 -157 33 -74 36
-132 95 -169 170 -33 67 -34 224 -2 294 40 87 127 165 216 194 64 21 200 13
259 -15z"/>
</g>
</svg>
