<?xml version="1.0" standalone="no"?>
<!DOCTYPE svg PUBLIC "-//W3C//DTD SVG 20010904//EN"
 "http://www.w3.org/TR/2001/REC-SVG-20010904/DTD/svg10.dtd">
<svg version="1.0" xmlns="http://www.w3.org/2000/svg"
 width="512.000000pt" height="512.000000pt" viewBox="0 0 512.000000 512.000000"
 preserveAspectRatio="xMidYMid meet">

<g transform="translate(0.000000,512.000000) scale(0.100000,-0.100000)"
fill="#000000" stroke="none">
<path d="M3790 4724 c-190 -36 -210 -46 -210 -106 0 -36 40 -78 73 -78 14 0
62 7 107 16 45 8 84 13 86 11 6 -6 -135 -224 -243 -376 -107 -150 -253 -335
-386 -491 -141 -164 -546 -562 -716 -704 -569 -474 -1190 -839 -1846 -1086
-77 -29 -147 -59 -157 -67 -40 -35 -23 -116 28 -129 38 -10 70 0 272 80 1253
498 2299 1348 3056 2483 66 100 122 180 124 179 1 -2 9 -38 17 -82 9 -43 22
-88 30 -100 30 -45 107 -36 132 16 16 34 -53 418 -82 449 -25 29 -72 26 -285
-15z"/>
<path d="M4053 4031 c-18 -5 -40 -14 -49 -21 -46 -39 -44 42 -44 -1815 0
-1893 -3 -1781 52 -1819 33 -24 583 -24 616 0 55 38 52 -75 52 1821 0 1713 0
1749 -20 1780 -34 56 -42 58 -320 60 -140 1 -270 -2 -287 -6z"/>
<path d="M3173 3071 c-18 -5 -40 -14 -49 -21 -46 -39 -44 9 -44 -1335 0 -1371
-3 -1301 52 -1339 33 -24 583 -24 616 0 55 38 52 -32 52 1341 0 1238 -1 1269
-20 1300 -34 56 -42 58 -320 60 -140 1 -270 -2 -287 -6z"/>
<path d="M2293 2271 c-40 -10 -60 -26 -79 -62 -22 -43 -21 -1746 1 -1789 31
-60 33 -60 345 -60 312 0 314 0 345 60 13 25 15 146 15 897 0 842 -1 869 -20
900 -34 56 -42 58 -320 60 -140 1 -270 -2 -287 -6z"/>
<path d="M1413 1791 c-40 -10 -60 -26 -79 -62 -22 -43 -21 -1266 1 -1309 31
-60 33 -60 345 -60 312 0 314 0 345 60 13 25 15 119 15 657 0 604 -1 629 -20
660 -34 56 -42 58 -320 60 -140 1 -270 -2 -287 -6z"/>
<path d="M533 1311 c-40 -10 -60 -26 -79 -62 -21 -42 -21 -787 1 -829 31 -60
33 -60 345 -60 312 0 314 0 345 60 13 24 15 92 15 417 0 367 -1 390 -20 420
-34 56 -42 58 -320 60 -140 1 -270 -2 -287 -6z"/>
</g>
</svg>
