<?xml version="1.0" standalone="no"?>
<!DOCTYPE svg PUBLIC "-//W3C//DTD SVG 20010904//EN"
 "http://www.w3.org/TR/2001/REC-SVG-20010904/DTD/svg10.dtd">
<svg version="1.0" xmlns="http://www.w3.org/2000/svg"
 width="512.000000pt" height="512.000000pt" viewBox="0 0 512.000000 512.000000"
 preserveAspectRatio="xMidYMid meet">

<g transform="translate(0.000000,512.000000) scale(0.100000,-0.100000)"
fill="#000000" stroke="none">
<path d="M970 4465 c-87 -18 -189 -57 -263 -102 -71 -43 -187 -151 -235 -216
l-32 -45 863 -593 c508 -350 887 -604 922 -618 53 -23 74 -26 175 -25 95 0
125 4 172 22 54 22 1769 1192 1776 1212 6 17 -55 94 -126 162 -117 110 -239
172 -400 204 -104 20 -2751 19 -2852 -1z"/>
<path d="M325 3748 c-3 -24 -5 -511 -3 -1083 4 -1129 0 -1052 58 -1207 29 -78
106 -194 175 -263 69 -69 185 -146 263 -175 154 -58 85 -54 1136 -58 l968 -3
-7 28 c-36 144 -41 402 -11 543 119 551 554 951 1111 1021 105 13 288 6 390
-16 38 -8 71 -15 72 -15 6 0 2 1197 -3 1231 l-6 36 -822 -565 c-490 -337 -853
-580 -901 -603 -126 -61 -189 -74 -350 -74 -154 0 -228 16 -350 77 -47 24
-1463 988 -1667 1135 l-47 34 -6 -43z"/>
<path d="M3993 2225 c-201 -36 -365 -124 -513 -274 -129 -130 -212 -278 -257
-457 -24 -95 -24 -333 0 -428 45 -179 128 -327 257 -457 177 -180 385 -273
635 -286 277 -14 519 81 720 282 137 137 216 276 262 461 24 95 24 333 0 428
-25 99 -72 210 -125 296 -62 102 -206 243 -311 308 -196 120 -445 168 -668
127z m550 -619 c69 -28 107 -104 92 -183 -6 -32 -42 -73 -243 -276 -131 -131
-250 -245 -266 -254 -36 -19 -106 -19 -142 0 -16 9 -88 75 -161 149 -140 142
-153 165 -139 243 9 46 62 100 114 115 65 20 112 1 192 -76 l66 -63 164 165
c91 91 179 172 195 180 39 17 87 17 128 0z"/>
</g>
</svg>
