<?xml version="1.0" standalone="no"?>
<!DOCTYPE svg PUBLIC "-//W3C//DTD SVG 20010904//EN"
 "http://www.w3.org/TR/2001/REC-SVG-20010904/DTD/svg10.dtd">
<svg version="1.0" xmlns="http://www.w3.org/2000/svg"
 width="512.000000pt" height="512.000000pt" viewBox="0 0 512.000000 512.000000"
 preserveAspectRatio="xMidYMid meet">

<g transform="translate(0.000000,512.000000) scale(0.100000,-0.100000)"
fill="#000000" stroke="none">
<path d="M422 4434 c-29 -7 -66 -21 -83 -29 l-30 -16 1068 -1075 c605 -609
1084 -1084 1105 -1095 46 -23 112 -24 154 -1 33 18 2204 2137 2204 2152 0 12
-82 48 -147 65 -84 22 -4190 21 -4271 -1z"/>
<path d="M41 4098 c-11 -29 -25 -75 -31 -103 -7 -34 -10 -515 -8 -1465 l3
-1415 27 -68 c14 -38 29 -71 32 -75 4 -3 273 260 599 585 328 328 605 597 620
603 76 28 166 -8 204 -80 27 -50 29 -86 8 -138 -11 -26 -195 -216 -602 -623
l-586 -587 31 -16 c93 -48 5 -46 2222 -46 2217 0 2129 -2 2222 46 l31 16 -590
591 c-627 628 -623 623 -610 703 17 105 126 170 224 134 15 -6 292 -275 621
-603 471 -470 594 -589 602 -577 5 8 20 44 32 80 l23 65 0 1435 c0 1347 -1
1439 -18 1493 -10 31 -22 57 -27 57 -5 0 -498 -478 -1095 -1062 -598 -585
-1111 -1080 -1141 -1100 -161 -109 -387 -108 -553 3 -40 27 -431 413 -1133
1120 -590 593 -1076 1079 -1079 1079 -4 0 -16 -24 -28 -52z"/>
</g>
</svg>
