<?xml version="1.0" standalone="no"?>
<!DOCTYPE svg PUBLIC "-//W3C//DTD SVG 20010904//EN"
 "http://www.w3.org/TR/2001/REC-SVG-20010904/DTD/svg10.dtd">
<svg version="1.0" xmlns="http://www.w3.org/2000/svg"
 width="512.000000pt" height="512.000000pt" viewBox="0 0 512.000000 512.000000"
 preserveAspectRatio="xMidYMid meet">

<g transform="translate(0.000000,512.000000) scale(0.100000,-0.100000)"
fill="#000000" stroke="none">
<path d="M3742 4668 c-26 -15 -586 -581 -1509 -1526 l-1468 -1504 -151 -604
c-83 -332 -147 -604 -141 -604 9 0 1141 284 1179 296 25 7 2965 3019 2985
3057 25 47 23 142 -4 192 -26 49 -655 676 -700 699 -48 24 -141 21 -191 -6z
m403 -488 l300 -300 -228 -227 -227 -228 -302 302 -303 303 225 225 c124 124
227 225 230 225 3 0 140 -135 305 -300z m-2898 -3336 c-1 -1 -55 -16 -119 -32
l-116 -29 -97 97 -96 97 26 104 c14 57 28 111 31 118 3 10 66 -46 189 -169
101 -101 183 -185 182 -186z"/>
</g>
</svg>
